<svg xmlns="http://www.w3.org/2000/svg" version="1.1" width="205px" height="205px" viewBox="0 0 205 205" style="shape-rendering:geometricPrecision; text-rendering:geometricPrecision; image-rendering:optimizeQuality; fill-rule:evenodd; clip-rule:evenodd" xmlns:xlink="http://www.w3.org/1999/xlink">
<g><path style="opacity:1" fill="#c8d6dc" d="M -0.5,-0.5 C 67.8333,-0.5 136.167,-0.5 204.5,-0.5C 204.5,67.8333 204.5,136.167 204.5,204.5C 136.167,204.5 67.8333,204.5 -0.5,204.5C -0.5,136.167 -0.5,67.8333 -0.5,-0.5 Z M 16.5,16.5 C 23.8635,16.1694 31.1968,16.5027 38.5,17.5C 36.5065,24.4332 35.8398,31.4332 36.5,38.5C 30.0411,36.4507 23.5411,36.1174 17,37.5C 16.5004,30.5079 16.3337,23.5079 16.5,16.5 Z M 78.5,19.5 C 73.2415,21.1293 68.5749,23.796 64.5,27.5C 62.781,23.6099 60.4476,20.1099 57.5,17C 64.4921,16.5004 71.4921,16.3337 78.5,16.5C 78.5,17.5 78.5,18.5 78.5,19.5 Z M 137.5,29.5 C 134.833,27.8333 132.167,26.1667 129.5,24.5C 129.5,21.8333 129.5,19.1667 129.5,16.5C 134.844,16.334 140.177,16.5006 145.5,17C 142.448,20.9406 139.782,25.1072 137.5,29.5 Z M 169.5,16.5 C 175.5,16.5 181.5,16.5 187.5,16.5C 187.5,22.5 187.5,28.5 187.5,34.5C 181.178,33.3124 174.844,33.3124 168.5,34.5C 169.585,28.4499 169.918,22.4499 169.5,16.5 Z M 183.5,77.5 C 181.351,72.5351 178.684,67.8684 175.5,63.5C 179.722,61.8057 183.555,59.4723 187,56.5C 187.5,63.4921 187.666,70.4921 187.5,77.5C 186.167,77.5 184.833,77.5 183.5,77.5 Z M 29.5,67.5 C 27.0751,70.5886 25.0751,73.9219 23.5,77.5C 21.1667,77.5 18.8333,77.5 16.5,77.5C 16.3338,71.1579 16.5005,64.8246 17,58.5C 20.7663,62.1062 24.9329,65.1062 29.5,67.5 Z M 21.5,128.5 C 23.0875,132.683 25.4208,136.35 28.5,139.5C 24.6471,141.682 20.8137,144.016 17,146.5C 16.5005,140.509 16.3338,134.509 16.5,128.5C 18.1667,128.5 19.8333,128.5 21.5,128.5 Z M 179.5,129.5 C 182.167,129.5 184.833,129.5 187.5,129.5C 187.666,134.844 187.499,140.177 187,145.5C 182.874,142.209 178.374,139.542 173.5,137.5C 175.5,134.833 177.5,132.167 179.5,129.5 Z M 168.5,167.5 C 174.664,169.252 180.997,169.918 187.5,169.5C 187.5,175.5 187.5,181.5 187.5,187.5C 181.167,187.5 174.833,187.5 168.5,187.5C 169.702,180.843 169.702,174.177 168.5,167.5 Z M 33.5,168.5 C 34.3764,168.369 35.0431,168.702 35.5,169.5C 33.8435,175.373 33.1768,181.373 33.5,187.5C 27.8333,187.5 22.1667,187.5 16.5,187.5C 16.5,181.5 16.5,175.5 16.5,169.5C 22.358,169.822 28.0247,169.489 33.5,168.5 Z M 66.5,173.5 C 68.8599,175.853 71.5265,177.853 74.5,179.5C 74.5,182.167 74.5,184.833 74.5,187.5C 68.8236,187.666 63.1569,187.499 57.5,187C 60.7553,182.595 63.7553,178.095 66.5,173.5 Z M 140.5,175.5 C 141.816,179.631 143.816,183.464 146.5,187C 139.508,187.5 132.508,187.666 125.5,187.5C 125.5,186.5 125.5,185.5 125.5,184.5C 131.269,182.72 136.269,179.72 140.5,175.5 Z"/></g>
<g><path style="opacity:0.78" fill="#8ca0b9" d="M 198.5,198.5 C 134.002,199.499 69.3355,199.832 4.5,199.5C 4.5,134.5 4.5,69.5 4.5,4.5C 69.5,4.5 134.5,4.5 199.5,4.5C 199.832,69.3355 199.499,134.002 198.5,198.5 Z M 16.5,16.5 C 16.3337,23.5079 16.5004,30.5079 17,37.5C 23.5411,36.1174 30.0411,36.4507 36.5,38.5C 35.8398,31.4332 36.5065,24.4332 38.5,17.5C 31.1968,16.5027 23.8635,16.1694 16.5,16.5 Z M 78.5,19.5 C 73.2415,21.1293 68.5749,23.796 64.5,27.5C 62.781,23.6099 60.4476,20.1099 57.5,17C 64.4921,16.5004 71.4921,16.3337 78.5,16.5C 78.5,17.5 78.5,18.5 78.5,19.5 Z M 137.5,29.5 C 134.833,27.8333 132.167,26.1667 129.5,24.5C 129.5,21.8333 129.5,19.1667 129.5,16.5C 134.844,16.334 140.177,16.5006 145.5,17C 142.448,20.9406 139.782,25.1072 137.5,29.5 Z M 169.5,16.5 C 169.918,22.4499 169.585,28.4499 168.5,34.5C 174.844,33.3124 181.178,33.3124 187.5,34.5C 187.5,28.5 187.5,22.5 187.5,16.5C 181.5,16.5 175.5,16.5 169.5,16.5 Z M 183.5,77.5 C 181.351,72.5351 178.684,67.8684 175.5,63.5C 179.722,61.8057 183.555,59.4723 187,56.5C 187.5,63.4921 187.666,70.4921 187.5,77.5C 186.167,77.5 184.833,77.5 183.5,77.5 Z M 29.5,67.5 C 27.0751,70.5886 25.0751,73.9219 23.5,77.5C 21.1667,77.5 18.8333,77.5 16.5,77.5C 16.3338,71.1579 16.5005,64.8246 17,58.5C 20.7663,62.1062 24.9329,65.1062 29.5,67.5 Z M 21.5,128.5 C 23.0875,132.683 25.4208,136.35 28.5,139.5C 24.6471,141.682 20.8137,144.016 17,146.5C 16.5005,140.509 16.3338,134.509 16.5,128.5C 18.1667,128.5 19.8333,128.5 21.5,128.5 Z M 179.5,129.5 C 182.167,129.5 184.833,129.5 187.5,129.5C 187.666,134.844 187.499,140.177 187,145.5C 182.874,142.209 178.374,139.542 173.5,137.5C 175.5,134.833 177.5,132.167 179.5,129.5 Z M 168.5,167.5 C 169.702,174.177 169.702,180.843 168.5,187.5C 174.833,187.5 181.167,187.5 187.5,187.5C 187.5,181.5 187.5,175.5 187.5,169.5C 180.997,169.918 174.664,169.252 168.5,167.5 Z M 33.5,168.5 C 28.0247,169.489 22.358,169.822 16.5,169.5C 16.5,175.5 16.5,181.5 16.5,187.5C 22.1667,187.5 27.8333,187.5 33.5,187.5C 33.1768,181.373 33.8435,175.373 35.5,169.5C 35.0431,168.702 34.3764,168.369 33.5,168.5 Z M 66.5,173.5 C 68.8599,175.853 71.5265,177.853 74.5,179.5C 74.5,182.167 74.5,184.833 74.5,187.5C 68.8236,187.666 63.1569,187.499 57.5,187C 60.7553,182.595 63.7553,178.095 66.5,173.5 Z M 140.5,175.5 C 141.816,179.631 143.816,183.464 146.5,187C 139.508,187.5 132.508,187.666 125.5,187.5C 125.5,186.5 125.5,185.5 125.5,184.5C 131.269,182.72 136.269,179.72 140.5,175.5 Z"/></g>
<g><path style="opacity:0.988" fill="#637a9f" d="M 198.5,198.5 C 134.167,198.5 69.8333,198.5 5.5,198.5C 5.5,134.167 5.5,69.8333 5.5,5.5C 69.8333,5.5 134.167,5.5 198.5,5.5C 198.5,69.8333 198.5,134.167 198.5,198.5 Z M 16.5,16.5 C 16.3337,23.5079 16.5004,30.5079 17,37.5C 23.5411,36.1174 30.0411,36.4507 36.5,38.5C 35.8398,31.4332 36.5065,24.4332 38.5,17.5C 31.1968,16.5027 23.8635,16.1694 16.5,16.5 Z M 78.5,19.5 C 73.2415,21.1293 68.5749,23.796 64.5,27.5C 62.781,23.6099 60.4476,20.1099 57.5,17C 64.4921,16.5004 71.4921,16.3337 78.5,16.5C 78.5,17.5 78.5,18.5 78.5,19.5 Z M 137.5,29.5 C 134.833,27.8333 132.167,26.1667 129.5,24.5C 129.5,21.8333 129.5,19.1667 129.5,16.5C 134.844,16.334 140.177,16.5006 145.5,17C 142.448,20.9406 139.782,25.1072 137.5,29.5 Z M 169.5,16.5 C 169.918,22.4499 169.585,28.4499 168.5,34.5C 174.844,33.3124 181.178,33.3124 187.5,34.5C 187.5,28.5 187.5,22.5 187.5,16.5C 181.5,16.5 175.5,16.5 169.5,16.5 Z M 183.5,77.5 C 181.351,72.5351 178.684,67.8684 175.5,63.5C 179.722,61.8057 183.555,59.4723 187,56.5C 187.5,63.4921 187.666,70.4921 187.5,77.5C 186.167,77.5 184.833,77.5 183.5,77.5 Z M 29.5,67.5 C 27.0751,70.5886 25.0751,73.9219 23.5,77.5C 21.1667,77.5 18.8333,77.5 16.5,77.5C 16.3338,71.1579 16.5005,64.8246 17,58.5C 20.7663,62.1062 24.9329,65.1062 29.5,67.5 Z M 21.5,128.5 C 23.0875,132.683 25.4208,136.35 28.5,139.5C 24.6471,141.682 20.8137,144.016 17,146.5C 16.5005,140.509 16.3338,134.509 16.5,128.5C 18.1667,128.5 19.8333,128.5 21.5,128.5 Z M 179.5,129.5 C 182.167,129.5 184.833,129.5 187.5,129.5C 187.666,134.844 187.499,140.177 187,145.5C 182.874,142.209 178.374,139.542 173.5,137.5C 175.5,134.833 177.5,132.167 179.5,129.5 Z M 168.5,167.5 C 169.702,174.177 169.702,180.843 168.5,187.5C 174.833,187.5 181.167,187.5 187.5,187.5C 187.5,181.5 187.5,175.5 187.5,169.5C 180.997,169.918 174.664,169.252 168.5,167.5 Z M 33.5,168.5 C 28.0247,169.489 22.358,169.822 16.5,169.5C 16.5,175.5 16.5,181.5 16.5,187.5C 22.1667,187.5 27.8333,187.5 33.5,187.5C 33.1768,181.373 33.8435,175.373 35.5,169.5C 35.0431,168.702 34.3764,168.369 33.5,168.5 Z M 66.5,173.5 C 68.8599,175.853 71.5265,177.853 74.5,179.5C 74.5,182.167 74.5,184.833 74.5,187.5C 68.8236,187.666 63.1569,187.499 57.5,187C 60.7553,182.595 63.7553,178.095 66.5,173.5 Z M 140.5,175.5 C 141.816,179.631 143.816,183.464 146.5,187C 139.508,187.5 132.508,187.666 125.5,187.5C 125.5,186.5 125.5,185.5 125.5,184.5C 131.269,182.72 136.269,179.72 140.5,175.5 Z"/></g>
<g><path style="opacity:0.998" fill="#fef2ce" d="M 129.5,24.5 C 132.167,26.1667 134.833,27.8333 137.5,29.5C 141.361,34.5552 144.194,40.2219 146,46.5C 146.784,49.7603 146.617,52.9269 145.5,56C 150.449,55.5084 155.449,55.5084 160.5,56C 166.101,57.4675 171.101,59.9675 175.5,63.5C 178.684,67.8684 181.351,72.5351 183.5,77.5C 189.556,95.3838 188.222,112.717 179.5,129.5C 177.5,132.167 175.5,134.833 173.5,137.5C 169.499,140.167 165.166,142.334 160.5,144C 154.782,144.516 149.115,144.516 143.5,144C 147.724,150.735 148.557,157.902 146,165.5C 144.396,169.048 142.563,172.382 140.5,175.5C 136.269,179.72 131.269,182.72 125.5,184.5C 107.739,190.819 90.7386,189.152 74.5,179.5C 71.5265,177.853 68.8599,175.853 66.5,173.5C 59.9319,166.131 56.9319,157.464 57.5,147.5C 46.2006,150.508 36.5339,147.842 28.5,139.5C 25.4208,136.35 23.0875,132.683 21.5,128.5C 14.2791,111.158 14.9458,94.1582 23.5,77.5C 25.0751,73.9219 27.0751,70.5886 29.5,67.5C 33.7753,64.4203 38.4419,61.9203 43.5,60C 49.2182,59.4835 54.8849,59.4835 60.5,60C 57.155,54.2737 55.9883,48.1071 57,41.5C 58.7472,36.3335 61.2472,31.6668 64.5,27.5C 68.5749,23.796 73.2415,21.1293 78.5,19.5C 96.2175,13.3946 113.218,15.0613 129.5,24.5 Z"/></g>
<g><path style="opacity:0.998" fill="#e8c872" d="M 74.5,64.5 C 86.3916,64.8633 95.8916,69.8633 103,79.5C 110.584,69.9562 120.418,65.7895 132.5,67C 137.055,69.0493 139.389,72.5493 139.5,77.5C 138.245,88.0868 133.245,96.4201 124.5,102.5C 133.577,109.653 138.077,118.987 138,130.5C 136.69,136.328 133.023,139.328 127,139.5C 116.857,137.592 108.524,132.592 102,124.5C 94.5266,134.344 84.6933,139.178 72.5,139C 64.6234,134.977 62.4567,128.81 66,120.5C 67.3333,117.833 68.6667,115.167 70,112.5C 73.6824,108.985 77.1824,105.318 80.5,101.5C 74.5514,95.9337 70.3847,89.2671 68,81.5C 65.7876,74.0146 67.9543,68.3479 74.5,64.5 Z"/></g>
</svg>
