<svg xmlns="http://www.w3.org/2000/svg" version="1.1" width="199px" height="199px" style="shape-rendering:geometricPrecision; text-rendering:geometricPrecision; image-rendering:optimizeQuality; fill-rule:evenodd; clip-rule:evenodd" xmlns:xlink="http://www.w3.org/1999/xlink">
<g><path style="opacity:0.999" fill="#c9d7dc" d="M -0.5,-0.5 C 65.8333,-0.5 132.167,-0.5 198.5,-0.5C 198.5,65.8333 198.5,132.167 198.5,198.5C 132.167,198.5 65.8333,198.5 -0.5,198.5C -0.5,132.167 -0.5,65.8333 -0.5,-0.5 Z"/></g>
<g><path style="opacity:1" fill="#fef2ce" d="M 111.5,17.5 C 131.474,15.9947 144.641,24.6613 151,43.5C 152.194,51.4203 151.361,59.087 148.5,66.5C 170.646,71.7888 180.812,85.7888 179,108.5C 172.786,128.047 159.286,137.38 138.5,136.5C 142.75,158.161 134.416,172.661 113.5,180C 97.4199,182.542 84.9199,177.042 76,163.5C 73.7005,159.104 72.5339,154.438 72.5,149.5C 59.4396,156.288 46.4396,156.121 33.5,149C 16.6523,134.367 14.1523,117.534 26,98.5C 30.4782,93.8538 35.6449,90.1872 41.5,87.5C 30.5862,78.322 26.4195,66.6554 29,52.5C 35.6803,32.5049 49.5137,24.0049 70.5,27C 76.5526,28.5257 81.886,31.3591 86.5,35.5C 92.6305,26.3594 100.964,20.3594 111.5,17.5 Z"/></g>
<g><path style="opacity:0.999" fill="#e8c872" d="M 91.5,69.5 C 109.563,67.2737 121.73,74.607 128,91.5C 129.844,117.656 117.677,129.823 91.5,128C 70.2105,118.905 64.3772,103.738 74,82.5C 78.5813,76.4103 84.4146,72.077 91.5,69.5 Z"/></g>
</svg>
